<svg width="49" height="47" viewBox="0 0 49 47" fill="none" xmlns="http://www.w3.org/2000/svg">
<path d="M26.21 45.9816C23.8799 45.3239 20.8357 43.8958 18.9942 42.5992C17.9043 41.8288 17.4909 41.3402 17.9607 41.3402C18.0735 41.3402 18.8627 41.6784 19.7083 42.0731C23.5416 43.9334 27.7884 44.8353 30.3816 44.3468C31.96 44.0461 32.6177 43.5387 32.9747 42.3549C33.2754 41.359 32.9371 39.9309 32.4486 40.1C32.2794 40.1564 31.2835 40.4946 30.2688 40.8704C27.1307 41.9979 23.8423 42.3737 21.2491 41.8851C19.9526 41.6596 19.013 41.1899 18.0735 40.3255L17.3782 39.6866L16.1756 40.8892C13.2442 43.8206 10.0873 43.8958 7.7384 41.0583C5.87809 38.8222 4.97612 35.8532 4.84459 31.381C4.75063 28.2805 4.90096 26.9651 5.35194 26.9651C5.57743 26.9651 5.6526 27.2657 5.67139 28.2805C5.74655 30.4414 6.08479 32.4896 6.6861 34.4815C7.45653 36.9807 8.13301 38.2397 9.35443 39.5551L10.3879 40.6449L11.5342 40.551C12.4737 40.4946 12.7744 40.3819 13.2442 39.9309C13.9582 39.2356 13.9582 39.0101 13.169 38.5403C12.267 37.9766 8.95982 34.4815 8.07664 33.1661C6.7049 31.0803 6.38545 30.0656 6.38545 27.6979V25.6121L5.33315 25.3866C1.91319 24.6914 -0.191402 22.2298 0.146836 19.3547C0.278373 18.2836 1.36825 16.0287 2.3078 14.8637C3.07823 13.9429 6.10358 11.3686 7.09951 10.8048C7.45654 10.5981 8.28334 10.1284 8.94103 9.73374C10.1436 9.05726 11.91 8.362 12.0603 8.53112C12.1543 8.60628 11.6093 9.01968 8.7719 11.0679C7.34379 12.0826 4.54393 14.9764 3.64196 16.3482C2.70241 17.7575 2.25143 19.3547 2.53329 20.2191C2.85274 21.1587 3.58559 21.9479 4.33723 22.1546C5.27678 22.4177 5.53985 22.2485 5.53985 21.4217C5.53985 20.2567 6.57336 16.4985 7.38137 14.7885C8.71553 11.9511 10.4255 10.1096 12.2858 9.56462C13.263 9.28275 13.3757 9.05726 12.9623 8.24925C12.4925 7.36607 12.361 4.24677 12.7368 3.38238C13.1126 2.4992 14.2777 1.18383 15.0105 0.808013C15.8561 0.357029 17.3406 0 18.3365 0C21.2491 0 25.5899 1.59723 29.3668 4.07765C30.8325 5.03599 31.2272 5.44939 30.6446 5.44939C30.5131 5.44939 29.5172 5.03599 28.4461 4.52863C25.8529 3.30722 23.7483 2.66832 21.174 2.2925C19.2009 2.01064 18.9754 2.02943 17.66 2.33008C16.0816 2.7059 15.4239 3.26963 15.1984 4.41589C15.0481 5.26148 15.2548 6.38894 15.5742 6.38894C15.7058 6.38894 16.5514 6.12587 17.4909 5.82521C19.7834 5.03599 21.2491 4.75412 23.6732 4.6038C25.8529 4.45347 27.7132 4.67896 28.7092 5.20511C29.0098 5.35543 29.6299 5.82521 30.0809 6.23861L30.8889 6.97146L31.3211 6.44531C32.1855 5.41181 33.0875 4.67896 34.1773 4.13402C35.0981 3.66425 35.5115 3.57029 36.6202 3.57029C37.7288 3.57029 38.1047 3.66425 38.8563 4.09644C41.6374 5.69367 43.3661 10.1284 43.3849 15.6905C43.4037 18.5467 43.197 20.144 42.9152 19.4111C42.84 19.1856 42.5957 17.8139 42.3702 16.3482C41.7125 11.9887 40.9045 9.63978 39.3449 7.57277C38.4993 6.44531 37.804 6.01312 36.8081 6.01312C36.0564 6.01312 34.5907 6.74597 34.4216 7.23454C34.3465 7.42245 34.7974 7.9298 35.8497 8.81298C36.6953 9.52704 37.6537 10.3914 37.9919 10.7297C38.9878 11.8007 40.6978 14.3187 41.3179 15.5965C41.8253 16.6864 41.8816 17.0059 41.8629 18.4152C41.8629 19.2984 41.8253 20.2191 41.7877 20.4822C41.7125 20.8956 41.8065 20.9708 42.4642 21.1211C44.3433 21.5345 44.6815 21.666 45.7902 22.4177C47.1807 23.3572 47.7257 24.0901 48.0075 25.4806C48.5712 28.1865 46.8237 31.3434 43.1406 34.3124C40.5851 36.3606 35.7746 38.8786 36.4323 37.8075C36.4886 37.7135 37.1839 37.1874 37.9919 36.6425C42.3514 33.6359 45.7338 29.4455 45.7526 27.0027C45.7526 26.3074 45.3392 25.3679 44.8318 24.9169C44.4184 24.541 43.1031 23.9961 42.9715 24.1464C42.9152 24.184 42.7272 25.0672 42.5393 26.1007C41.4682 32.0011 38.7248 36.3606 35.5491 37.225C34.9666 37.3753 34.8538 37.488 34.9666 37.7323C36.451 41.1711 35.8685 44.1589 33.3881 45.6058C31.4714 46.7332 29.3293 46.846 26.21 45.9816ZM29.8366 39.7993C31.3211 39.5551 32.0915 39.3296 32.1667 39.1417C32.411 38.484 31.2647 36.7928 28.8783 34.3124C28.0891 33.5044 24.6315 30.6481 24.2181 30.4978C23.8987 30.3851 21.7565 32.0574 21.08 32.9594C20.3472 33.9178 19.2197 36.229 19.1257 36.9995C18.919 38.5591 20.7981 39.9309 23.4853 40.1752C25.4959 40.3631 27.1683 40.2691 29.8366 39.7993ZM15.4427 36.9619C16.589 34.6694 17.2466 32.3205 17.7728 28.5999C18.0359 26.7208 18.0547 26.7396 16.0628 26.0819C14.0898 25.4242 12.6804 25.2927 11.008 25.6497C9.24168 26.0255 9.03498 26.1383 8.65916 27.059C8.1518 28.318 8.60279 30.4978 9.78662 32.4709C10.1249 33.0722 10.5758 33.8426 10.7825 34.1996C11.1396 34.8573 13.8643 38.1269 14.2401 38.3712C14.5595 38.5779 14.7099 38.39 15.4427 36.9619ZM36.1692 34.5003C37.2215 33.9741 38.706 32.1702 39.7395 30.1971C40.4911 28.769 41.7125 25.537 41.8441 24.6162L41.9004 24.1464L39.7395 24.1652C37.9543 24.1652 37.2591 24.2592 35.7934 24.6914C33.9518 25.2363 30.4003 26.6269 30.25 26.8711C30.0809 27.153 30.9077 30.4414 31.4339 31.5877C31.7533 32.2642 32.4674 33.2789 33.0311 33.8802C34.2149 35.1204 34.7411 35.2331 36.1692 34.5003ZM25.4959 25.1611L26.3979 24.5786V23.4136C26.3979 22.0982 26.2287 21.8164 25.214 21.2526C24.3309 20.7641 23.9362 20.7641 23.0343 21.215C21.982 21.76 21.8316 22.0418 21.8692 23.3572C21.9068 24.635 22.0008 24.8041 23.1094 25.3491C24.1242 25.8564 24.4248 25.8376 25.4959 25.1611ZM11.0456 22.1546C12.0791 21.9479 13.3757 21.6097 13.8831 21.4217C16.1568 20.5761 17.7916 19.8433 17.8855 19.5802C18.0547 19.1668 17.4533 16.4421 16.946 15.3335C15.9689 13.2289 14.4844 11.6504 13.4697 11.6504C11.9476 11.6504 9.73025 13.8114 8.3585 16.6112C7.38137 18.5655 6.066 22.1546 6.23512 22.3989C6.40424 22.6807 9.16652 22.5492 11.0456 22.1546ZM36.996 20.952C37.71 20.8768 38.4993 20.7265 38.7436 20.6137C40.1529 19.9748 40.0589 16.8931 38.5556 14.3375C38.2174 13.7738 37.7664 13.0034 37.5409 12.6276C36.9584 11.6692 34.0646 8.26804 33.8203 8.26804C33.2566 8.26804 31.8473 11.331 31.1144 14.1872C30.6822 15.8032 30.2688 18.8286 30.3816 19.5238C30.4191 19.8433 30.6822 20.05 31.3775 20.3319C32.3734 20.7265 34.9478 21.2338 35.4175 21.1399C35.5679 21.1023 36.2819 21.0271 36.996 20.952ZM26.022 14.5442C27.9763 12.6463 29.085 10.7297 29.085 9.30155C29.085 8.23046 28.6716 7.74189 27.0931 7.02783C25.9657 6.50169 25.8341 6.4829 22.8276 6.4829C19.7646 6.4829 16.2131 6.93388 15.9501 7.34728C15.8937 7.44124 16.138 8.04255 16.4762 8.68144C17.4346 10.523 23.2598 16.1603 24.1805 16.1603C24.2933 16.1603 25.1201 15.4274 26.022 14.5442Z" fill="black"/>
</svg>
